<?xml version="1.0" standalone="no"?>
<!DOCTYPE svg PUBLIC "-//W3C//DTD SVG 20010904//EN"
 "http://www.w3.org/TR/2001/REC-SVG-20010904/DTD/svg10.dtd">
<svg version="1.0" xmlns="http://www.w3.org/2000/svg"
 width="500.000000pt" height="500.000000pt" viewBox="0 0 500.000000 500.000000"
 preserveAspectRatio="xMidYMid meet">

<g transform="translate(0.000000,500.000000) scale(0.100000,-0.100000)"
fill="#ffffff" stroke="none">
<path d="M3655 4925 c-24 -9 -57 -33 -83 -62 -23 -26 -53 -59 -65 -73 -52 -57
-139 -162 -227 -275 -52 -66 -104 -132 -118 -146 -13 -14 -33 -42 -45 -62 -46
-77 -382 -567 -389 -567 -4 0 -13 10 -19 23 -33 63 -284 334 -334 360 -51 27
-165 30 -210 5 -48 -26 -184 -170 -291 -308 -73 -95 -216 -273 -224 -280 -11
-8 -169 -220 -180 -240 -12 -23 -93 -135 -174 -242 -55 -73 -76 -92 -76 -68 0
6 -39 70 -86 142 -47 72 -88 138 -91 147 -4 9 -26 44 -50 78 -59 84 -123 117
-220 111 -107 -6 -122 -19 -265 -241 -69 -105 -159 -253 -200 -327 -133 -240
-268 -548 -298 -683 -19 -81 -8 -257 19 -337 41 -120 108 -242 174 -320 95
-110 246 -196 414 -236 87 -21 95 -25 104 -55 81 -281 216 -528 389 -712 121
-129 360 -304 475 -347 153 -57 327 -112 405 -126 115 -20 433 -21 555 -1 124
21 344 93 485 158 147 68 445 338 553 500 188 284 295 624 285 910 l-3 108 45
7 c92 12 256 59 378 108 136 54 331 210 452 363 111 139 225 402 250 578 17
119 12 284 -10 380 -49 210 -224 583 -370 789 -162 228 -217 307 -239 342 -14
23 -53 74 -86 114 -33 40 -104 127 -159 194 -54 66 -113 135 -130 152 -17 17
-43 47 -58 66 -58 76 -183 108 -283 73z m203 -701 c51 -65 97 -128 102 -139 5
-11 34 -51 65 -90 58 -71 218 -307 290 -425 65 -107 160 -308 195 -414 31 -94
32 -105 27 -195 -8 -111 -24 -176 -65 -264 -72 -154 -189 -290 -314 -365 -97
-58 -292 -112 -403 -112 -26 0 -35 15 -185 305 -113 217 -256 445 -413 657
-23 32 -55 78 -70 102 l-28 45 49 98 c27 54 80 146 117 203 145 223 217 330
223 330 4 0 27 32 52 70 67 105 240 322 253 317 6 -2 54 -57 105 -123z m-1481
-789 c49 -60 120 -150 158 -200 38 -49 79 -100 92 -112 12 -12 44 -55 70 -95
26 -40 68 -102 93 -138 168 -235 241 -341 265 -385 148 -265 275 -525 309
-635 36 -112 45 -195 35 -310 -19 -225 -83 -392 -227 -588 -145 -198 -321
-326 -553 -402 -183 -60 -455 -66 -639 -13 -64 18 -216 79 -276 111 -67 34
-187 135 -252 210 -139 162 -202 266 -252 415 -37 110 -36 114 37 152 88 45
179 133 227 218 135 242 160 447 81 668 -20 57 -39 118 -42 135 -7 46 25 110
125 248 142 196 207 288 237 336 15 25 44 63 64 86 20 22 63 76 96 119 122
159 248 306 255 298 4 -4 47 -57 97 -118z m-1474 -800 c98 -173 194 -381 217
-465 28 -103 -15 -237 -101 -314 -165 -148 -430 -97 -524 101 -56 120 -45 203
57 408 32 66 65 136 72 157 7 20 48 93 91 162 l78 126 36 -52 c19 -29 53 -84
74 -123z"/>
<path d="M3713 4020 c-18 -10 -39 -34 -49 -51 -23 -46 -8 -89 65 -181 33 -42
85 -111 116 -154 31 -44 74 -98 96 -121 37 -40 44 -43 91 -43 45 0 54 4 84 36
58 61 50 90 -75 262 -43 59 -80 112 -82 119 -8 23 -104 125 -130 139 -38 19
-78 18 -116 -6z"/>
<path d="M4123 3454 c-75 -32 -83 -118 -22 -235 38 -72 44 -80 82 -90 98 -26
167 15 167 100 0 50 -68 193 -102 215 -35 21 -89 26 -125 10z"/>
<path d="M2982 1970 c-18 -11 -40 -36 -48 -55 -13 -31 -12 -44 2 -112 22 -106
14 -286 -16 -362 -35 -89 -65 -143 -128 -226 -65 -87 -77 -120 -62 -160 18
-48 58 -75 110 -75 43 0 53 5 101 48 55 49 132 159 160 227 35 84 71 226 79
315 14 154 -14 330 -63 385 -31 35 -92 42 -135 15z"/>
<path d="M2430 995 c-36 -7 -96 -16 -135 -20 -60 -6 -73 -11 -102 -40 -27 -27
-33 -41 -33 -74 0 -96 57 -137 173 -126 124 11 217 35 250 64 41 38 50 113 16
155 -20 25 -76 58 -96 55 -4 0 -37 -7 -73 -14z"/>
</g>
</svg>
