<?xml version="1.0" standalone="no"?>
<!DOCTYPE svg PUBLIC "-//W3C//DTD SVG 20010904//EN"
 "http://www.w3.org/TR/2001/REC-SVG-20010904/DTD/svg10.dtd">
<svg version="1.0" xmlns="http://www.w3.org/2000/svg"
 width="512.000000pt" height="512.000000pt" viewBox="0 0 512.000000 512.000000"
 preserveAspectRatio="xMidYMid meet">

<g transform="translate(0.000000,512.000000) scale(0.100000,-0.100000)"
fill="#ffffff" stroke="none">
<path d="M2565 5102 c-51 -24 -101 -80 -115 -129 -6 -21 -51 -258 -100 -528
-93 -515 -94 -530 -57 -601 28 -55 116 -114 168 -114 18 0 19 -10 19 -139 l0
-140 -52 -15 c-113 -33 -207 -116 -266 -234 -35 -72 -37 -80 -37 -176 0 -56 3
-117 8 -136 l7 -35 -122 -69 c-97 -54 -125 -66 -138 -57 -97 69 -243 87 -333
40 -44 -23 -753 -432 -789 -455 -126 -81 -120 -275 10 -351 84 -50 102 -46
582 126 594 212 554 196 599 247 51 58 65 115 51 196 -6 33 -8 63 -5 66 3 4
54 34 113 68 l106 61 48 -41 c37 -32 48 -48 48 -71 1 -16 -14 -328 -32 -693
-23 -478 -30 -667 -22 -680 6 -9 23 -23 37 -30 34 -17 76 1 93 38 7 15 22 250
38 575 15 303 30 595 33 650 l6 100 98 0 c92 0 99 -1 99 -20 0 -11 27 -551 60
-1200 33 -649 60 -1185 60 -1192 0 -10 -48 -13 -220 -13 l-220 0 0 23 c0 12 9
190 20 396 13 254 16 379 10 392 -24 43 -85 52 -118 16 -21 -23 -23 -40 -42
-408 -11 -211 -20 -392 -20 -401 0 -17 -28 -18 -449 -18 -438 0 -449 0 -475
-21 -34 -27 -35 -71 -1 -104 l24 -25 1271 0 1271 0 24 25 c32 31 32 69 0 100
l-24 25 -451 0 c-374 0 -450 2 -450 14 0 7 -27 546 -60 1196 -33 650 -60 1206
-60 1234 0 48 2 53 48 92 l47 41 123 -70 c123 -70 124 -71 118 -102 -15 -78
30 -198 98 -263 62 -60 831 -500 887 -508 67 -9 124 11 173 59 73 74 84 171
28 256 -33 50 -781 686 -837 712 -79 36 -171 17 -249 -51 l-37 -33 -47 27
c-26 14 -78 43 -115 64 l-68 37 8 35 c4 19 8 80 8 135 0 91 -3 106 -32 168
-56 117 -168 217 -280 246 l-43 12 0 143 0 144 54 30 c59 34 105 86 139 159
22 48 22 52 22 543 l0 495 -25 45 c-53 93 -173 135 -265 92z m121 -146 c18
-14 19 -31 19 -483 0 -527 1 -519 -76 -570 -72 -48 -187 -37 -208 20 -12 31
164 1004 187 1030 18 21 51 22 78 3z m3 -1681 c53 -27 100 -75 133 -138 33
-60 33 -194 0 -254 -55 -105 -143 -158 -262 -158 -125 0 -215 59 -268 173 -21
47 -24 64 -20 131 5 84 20 121 75 182 86 96 228 122 342 64z m1101 -896 c401
-340 430 -366 430 -391 0 -23 -35 -58 -58 -58 -15 0 -684 380 -785 446 -54 35
-77 78 -77 142 0 89 49 162 109 162 21 0 110 -70 381 -301z m-2045 252 c101
-47 147 -172 77 -210 -56 -30 -949 -340 -964 -335 -10 3 -25 16 -34 29 -30 46
-13 59 384 287 207 119 393 224 412 232 46 20 77 19 125 -3z"/>
<path d="M2516 3069 c-52 -41 -23 -129 44 -129 67 0 96 88 44 129 -15 12 -34
21 -44 21 -10 0 -29 -9 -44 -21z"/>
<path d="M1645 4906 c-229 -112 -395 -235 -585 -433 -304 -315 -492 -704 -555
-1145 -37 -260 0 -752 62 -820 22 -25 85 -24 108 2 20 22 18 62 -11 200 -9 45
-17 156 -21 280 -6 225 6 347 53 532 115 456 402 860 800 1126 82 55 301 172
322 172 20 0 52 48 52 77 0 36 -38 73 -74 73 -11 0 -79 -29 -151 -64z"/>
<path d="M3272 4947 c-29 -31 -29 -77 1 -105 13 -12 27 -22 31 -22 19 0 233
-114 312 -166 464 -306 768 -787 850 -1344 20 -141 14 -479 -10 -600 -29 -138
-31 -178 -11 -200 23 -26 86 -27 108 -2 62 68 99 560 62 821 -45 316 -160 617
-335 877 -157 232 -391 456 -632 606 -105 65 -299 158 -331 158 -13 0 -33 -10
-45 -23z"/>
<path d="M1900 4029 c-123 -79 -277 -233 -356 -354 -117 -181 -182 -375 -191
-581 -6 -119 -5 -121 18 -137 31 -22 71 -21 99 1 19 16 23 32 31 132 13 185
77 368 180 522 63 94 210 235 311 298 95 60 116 88 99 133 -11 29 -39 47 -73
47 -13 0 -66 -28 -118 -61z"/>
<path d="M3057 4079 c-27 -16 -40 -58 -27 -88 7 -16 50 -51 111 -91 198 -127
356 -331 427 -550 33 -99 43 -156 52 -270 7 -90 11 -107 30 -122 28 -22 68
-23 99 -1 23 16 24 18 18 137 -9 206 -74 400 -191 581 -79 121 -233 275 -356
354 -94 60 -127 71 -163 50z"/>
<path d="M1221 1554 c-32 -41 -26 -63 29 -115 125 -117 420 -282 632 -354
l117 -40 28 21 c31 23 41 69 24 102 -6 12 -45 31 -103 51 -189 66 -392 174
-557 298 -98 73 -135 81 -170 37z"/>
<path d="M3727 1515 c-160 -121 -366 -230 -555 -296 -58 -20 -97 -39 -103 -51
-17 -33 -7 -79 24 -102 l28 -21 117 40 c257 86 646 320 676 408 14 39 -19 81
-65 85 -29 2 -48 -7 -122 -63z"/>
</g>
</svg>
