<?xml version="1.0" standalone="no"?>

<svg version="1.0" xmlns="http://www.w3.org/2000/svg"
 width="64" height="64" viewBox="0 0 50.000000 50.000000"
 preserveAspectRatio="xMidYMid meet" fill="lightskyblue">

<g transform="translate(0.000000,50.000000) scale(0.100,-0.100)"
fill="lightskyblue" stroke="lightskyblue">
<path d="M219 400 c-13 -10 -20 -19 -15 -20 18 0 76 24 76 32 0 15 -38 8 -61
-12z"/>
<path d="M310 412 c0 -10 45 -32 63 -32 17 1 -32 40 -49 40 -8 0 -14 -4 -14
-8z"/>

<path d="M65 310 c-13 -24 -13 -30 -2 -30 11 0 37 39 37 55 0 16 -22 0 -35
-25z"/>
<path d="M430 275 c0 -5 50 -55 55 -55 12 0 3 29 -13 43 -17 16 -42 23 -42 12z"/>
<path d="M11 251 c-13 -23 -15 -61 -3 -61 11 0 31 70 21 76 -4 2 -13 -4 -18
-15z"/>
<path d="M468 165 c-27 -36 -21 -54 7 -22 25 28 32 47 18 47 -5 0 -16 -11 -25
-25z"/>

<path d="M120 120 c0 -5 18 -10 40 -10 22 0 40 5 40 10 0 6 -18 10 -40 10 -22
0 -40 -4 -40 -10z"/>

<path d="M340 120 c0 -5 18 -10 40 -10 22 0 40 5 40 10 0 6 -18 10 -40 10 -22
0 -40 -4 -40 -10z"/>
</g>
</svg>
