<svg xmlns="http://www.w3.org/2000/svg" xmlns:xlink="http://www.w3.org/1999/xlink" width="64" height="64" version="1.1" viewbox="0 0 64 64"><defs><filter id="blur" width="200%" height="200%"><feGaussianBlur in="SourceAlpha" stdDeviation="3"/><feOffset dx="0" dy="4" result="offsetblur"/><feComponentTransfer><feFuncA slope=".05" type="linear"/></feComponentTransfer><feMerge><feMergeNode/><feMergeNode in="SourceGraphic"/></feMerge></filter></defs><g id="day" filter="url(#blur)"><g transform="translate(32,32)"><g class="am-weather-sun am-weather-sun-shiny am-weather-easing-ease-in-out"><g><line x1="0" x2="0" y1="0" y2="3" fill="none" stroke="orange" stroke-linecap="round" stroke-width="2" transform="translate(0,9)"/></g><g transform="rotate(45)"><line x1="0" x2="0" y1="0" y2="3" fill="none" stroke="orange" stroke-linecap="round" stroke-width="2" transform="translate(0,9)"/></g><g transform="rotate(90)"><line x1="0" x2="0" y1="0" y2="3" fill="none" stroke="orange" stroke-linecap="round" stroke-width="2" transform="translate(0,9)"/></g><g transform="rotate(135)"><line x1="0" x2="0" y1="0" y2="3" fill="none" stroke="orange" stroke-linecap="round" stroke-width="2" transform="translate(0,9)"/></g><g transform="rotate(180)"><line x1="0" x2="0" y1="0" y2="3" fill="none" stroke="orange" stroke-linecap="round" stroke-width="2" transform="translate(0,9)"/></g><g transform="rotate(225)"><line x1="0" x2="0" y1="0" y2="3" fill="none" stroke="orange" stroke-linecap="round" stroke-width="2" transform="translate(0,9)"/></g><g transform="rotate(270)"><line x1="0" x2="0" y1="0" y2="3" fill="none" stroke="orange" stroke-linecap="round" stroke-width="2" transform="translate(0,9)"/></g><g transform="rotate(315)"><line x1="0" x2="0" y1="0" y2="3" fill="none" stroke="orange" stroke-linecap="round" stroke-width="2" transform="translate(0,9)"/></g></g><circle cx="0" cy="0" r="5" fill="orange" stroke="orange" stroke-width="2"/></g></g></svg>