<svg xmlns="http://www.w3.org/2000/svg" xmlns:xlink="http://www.w3.org/1999/xlink" width="64" height="64" version="1.1" viewbox="0 0 64 64"><defs><filter id="blur" width="200%" height="200%"><feGaussianBlur in="SourceAlpha" stdDeviation="3"/><feOffset dx="0" dy="4" result="offsetblur"/><feComponentTransfer><feFuncA slope=".05" type="linear"/></feComponentTransfer><feMerge><feMergeNode/><feMergeNode in="SourceGraphic"/></feMerge></filter></defs><g id="night" filter="url(#blur)"><g><g class="am-weather-moon-star-1" transform="translate(20,20)"><polygon fill="orange" stroke="none" stroke-miterlimit="10" points="3.3 1.5 4 2.7 5.2 3.3 4 4 3.3 5.2 2.7 4 1.5 3.3 2.7 2.7"/></g><g class="am-weather-moon-star-2" transform="translate(20,20)"><polygon fill="orange" stroke="none" stroke-miterlimit="10" points="3.3 1.5 4 2.7 5.2 3.3 4 4 3.3 5.2 2.7 4 1.5 3.3 2.7 2.7" transform="translate(20,10)"/></g><g class="am-weather-moon"><path fill="orange" stroke="orange" stroke-linejoin="round" stroke-width="2" d="M14.5,13.2c0-3.7,2-6.9,5-8.7 c-1.5-0.9-3.2-1.3-5-1.3c-5.5,0-10,4.5-10,10s4.5,10,10,10c1.8,0,3.5-0.5,5-1.3C16.5,20.2,14.5,16.9,14.5,13.2z" transform="translate(20,20)"/></g></g></g></svg>