<svg xmlns="http://www.w3.org/2000/svg" width="682.667" height="682.667" fill="#87cefa" preserveAspectRatio="xMidYMid meet" transform="scale(0.6)" version="1.0" viewBox="0 0 512 512"><g fill="#87cefa" stroke="none"><path d="M1482 4580 c-40 -11 -101 -34 -135 -52 -85 -45 -194 -156 -237 -239 l-34 -67 -64 -6 c-81 -9 -158 -38 -216 -82 -41 -31 -53 -35 -123 -39 -216 -11 -386 -149 -443 -357 -18 -68 -9 -208 19 -281 45 -116 150 -221 269 -269 56 -22 67 -23 432 -26 277 -2 380 0 397 9 29 16 47 68 34 100 -20 54 -16 54 -410 59 -362 5 -367 5 -413 29 -180 92 -224 330 -87 471 61 62 132 92 223 91 41 0 78 -1 82 -2 29 -5 50 6 87 42 75 73 133 92 242 75 68 -10 96 12 125 98 66 200 264 321 468 287 123 -21 224 -87 289 -188 41 -65 60 -123 69 -215 6 -60 10 -72 37 -94 28 -24 36 -25 81 -18 115 18 204 -2 273 -60 l33 -28 -94 -47 c-51 -26 -124 -70 -162 -97 -91 -64 -218 -192 -274 -276 l-45 -67 -162 -1 c-164 0 -206 -7 -229 -38 -22 -28 -17 -80 11 -107 23 -24 29 -25 155 -25 140 0 139 1 119 -54 l-11 -31 -147 0 c-138 0 -151 -2 -234 -31 -114 -41 -185 -84 -271 -165 l-71 -65 -55 9 c-71 11 -239 2 -315 -18 -150 -40 -268 -100 -373 -190 -319 -274 -410 -710 -227 -1082 99 -202 259 -351 467 -437 152 -63 185 -66 697 -66 l459 0 12 -52 c50 -212 226 -388 441 -442 58 -14 159 -16 871 -16 l805 0 27 26 c17 18 26 37 26 59 0 22 -9 41 -26 59 l-27 26 -776 0 c-456 0 -801 4 -835 10 -131 21 -250 112 -309 237 -30 63 -32 75 -32 174 0 101 1 108 38 181 81 165 263 260 435 228 88 -16 120 -13 147 15 20 19 25 34 25 77 1 241 163 474 388 555 283 103 598 -22 731 -288 23 -45 41 -89 41 -98 0 -24 36 -78 61 -91 16 -9 39 -9 98 0 65 11 85 10 139 -4 71 -18 139 -60 177 -111 36 -46 65 -54 153 -41 203 28 402 -97 462 -292 76 -246 -82 -501 -336 -542 -33 -6 -134 -10 -225 -10 -152 0 -167 -2 -187 -20 -44 -41 -36 -116 14 -139 16 -7 94 -11 213 -11 213 0 295 15 404 72 132 70 253 226 292 378 23 89 17 251 -13 336 l-21 62 44 68 c99 150 139 290 139 484 0 189 -40 330 -136 477 -179 274 -473 426 -795 410 l-112 -5 -6 56 c-16 145 -92 374 -142 428 -32 35 -94 34 -122 -2 -29 -37 -27 -58 20 -173 49 -122 68 -211 78 -353 10 -152 32 -171 160 -142 603 136 1083 -476 805 -1028 l-35 -70 -32 29 c-119 109 -257 163 -421 163 l-89 0 -42 39 c-82 76 -205 121 -326 121 l-66 0 -21 51 c-63 150 -205 299 -355 373 -131 64 -198 80 -342 80 -136 0 -229 -21 -338 -75 -214 -108 -364 -301 -411 -529 l-13 -65 -94 -7 c-150 -11 -266 -59 -370 -155 -93 -86 -158 -198 -184 -316 l-6 -28 -477 3 -477 3 -80 28 c-281 95 -465 317 -505 606 -46 341 178 687 510 785 121 36 236 39 402 10 37 -6 40 -5 125 82 168 171 336 223 561 177 118 -25 126 -19 173 117 46 135 60 166 115 251 147 230 398 396 668 444 306 53 611 -37 845 -249 68 -62 89 -76 116 -76 67 0 107 78 69 135 -23 35 -167 155 -244 203 -88 55 -237 117 -346 144 -73 18 -119 22 -254 22 -91 1 -187 -3 -215 -7 l-50 -8 -35 45 c-75 94 -205 163 -331 173 l-66 6 -12 54 c-33 145 -166 315 -300 382 -136 69 -290 87 -429 51z" transform="translate(0.000000,512.000000) scale(0.100000,-0.100000)"/></g></svg>