<?xml version="1.0" standalone="no"?>
<!DOCTYPE svg PUBLIC "-//W3C//DTD SVG 20010904//EN"
 "http://www.w3.org/TR/2001/REC-SVG-20010904/DTD/svg10.dtd">
<svg version="1.0" xmlns="http://www.w3.org/2000/svg"
 width="512.000000pt" height="512.000000pt" viewBox="0 0 512.000000 512.000000"
 preserveAspectRatio="xMidYMid meet">

<g transform="translate(0.000000,512.000000) scale(0.100000,-0.100000)"
fill="#ffffff" stroke="none">
<path d="M2290 5104 c-725 -98 -1344 -583 -1614 -1264 -152 -385 -181 -830
-81 -1231 55 -216 150 -437 267 -616 62 -96 193 -259 214 -267 53 -20 104 12
104 66 0 24 -15 49 -60 104 -309 373 -458 835 -429 1326 29 492 273 981 646
1296 306 258 645 403 1037 444 137 14 166 28 166 83 0 24 -7 39 -26 54 -31 25
-70 26 -224 5z"/>
<path d="M2716 5087 c-30 -30 -32 -46 -11 -87 17 -32 21 -34 140 -51 779 -110
1426 -740 1561 -1521 144 -832 -275 -1653 -1029 -2018 -644 -311 -1369 -236
-1966 203 -71 53 -101 58 -136 22 -36 -35 -32 -71 11 -111 98 -93 381 -256
556 -320 l78 -29 0 -190 c1 -262 10 -298 90 -352 26 -18 47 -23 96 -23 l64 0
0 -257 c0 -375 -24 -353 390 -353 322 0 333 2 370 63 18 30 20 52 20 290 l0
257 64 0 c49 0 70 5 96 23 80 54 89 90 90 352 l0 190 78 29 c191 70 412 199
577 338 502 419 767 1039 724 1693 -48 725 -483 1367 -1141 1685 -195 94 -440
167 -630 186 -62 6 -68 5 -92 -19z m-486 -3989 c172 -31 485 -31 665 1 72 12
135 24 140 24 11 2 20 -301 10 -340 l-5 -23 -479 0 c-427 0 -480 2 -485 16 -8
22 -8 339 1 348 4 3 14 4 22 1 9 -3 67 -16 131 -27z m570 -718 l0 -230 -240 0
-240 0 0 230 0 230 240 0 240 0 0 -230z"/>
<path d="M2329 4695 c-465 -76 -859 -325 -1114 -705 -418 -624 -343 -1463 180
-2009 534 -558 1392 -661 2035 -243 252 163 439 372 570 637 106 213 148 363
170 597 16 167 -13 453 -55 555 -22 52 -92 59 -127 12 -20 -26 -20 -27 1 -121
72 -333 36 -651 -109 -953 -291 -604 -944 -933 -1599 -806 -727 141 -1233 804
-1180 1545 16 230 95 475 211 661 218 346 572 590 975 672 134 27 433 25 570
-5 208 -45 413 -137 573 -256 162 -121 340 -329 423 -492 31 -62 47 -75 87
-76 40 -1 73 31 73 71 0 55 -130 259 -258 402 -168 188 -431 363 -670 444
-174 59 -276 76 -480 81 -132 2 -216 -1 -276 -11z"/>
<path d="M2360 4265 c-244 -41 -458 -152 -631 -326 -227 -229 -351 -529 -352
-849 0 -252 72 -476 220 -683 56 -77 78 -92 123 -85 32 4 64 50 57 80 -4 12
-29 55 -58 93 -92 126 -168 318 -185 464 l-7 61 137 0 c132 0 138 1 161 25 32
31 32 69 0 100 -23 24 -29 25 -160 25 l-135 0 0 24 c0 82 50 256 105 366 30
58 130 210 139 210 2 0 47 -43 100 -95 84 -82 101 -95 131 -95 24 0 39 7 54
26 38 48 29 69 -75 175 -53 53 -93 102 -90 108 13 20 172 120 241 151 73 33
216 74 297 85 l46 6 4 -141 c3 -135 4 -143 27 -161 30 -24 72 -24 102 0 23 18
24 26 27 161 l4 141 41 -6 c98 -15 215 -48 289 -80 75 -32 240 -134 254 -156
3 -6 -37 -55 -90 -108 -104 -106 -113 -127 -75 -175 14 -18 30 -26 52 -26 28
0 47 15 127 95 52 52 98 95 102 95 12 0 107 -140 143 -210 53 -107 105 -286
105 -365 l0 -25 -135 0 c-131 0 -137 -1 -160 -25 -32 -31 -32 -69 0 -100 23
-24 29 -25 160 -25 l135 0 0 -27 c-1 -48 -37 -197 -67 -274 -30 -76 -86 -176
-148 -263 -41 -56 -43 -73 -14 -110 25 -32 79 -36 107 -8 39 39 114 154 156
239 58 117 88 213 111 358 10 59 7 266 -5 339 -71 446 -395 826 -816 956 -157
48 -390 63 -554 35z"/>
<path d="M2141 3494 c-12 -15 -21 -36 -21 -47 0 -11 35 -55 81 -103 l81 -83
-18 -48 c-63 -161 23 -352 186 -414 64 -24 149 -24 220 1 l55 19 202 -201
c187 -186 204 -200 230 -194 37 9 63 41 63 79 0 27 -26 57 -195 227 l-196 196
23 50 c31 66 31 179 1 245 -31 68 -90 128 -158 161 -78 36 -180 39 -256 7
l-50 -22 -78 77 c-68 66 -84 76 -114 76 -26 0 -41 -7 -56 -26z m510 -257 c39
-25 79 -97 79 -141 0 -51 -38 -114 -84 -141 -86 -50 -193 -19 -235 68 -27 55
-27 92 2 147 31 63 76 90 147 90 43 0 66 -6 91 -23z"/>
</g>
</svg>
