<?xml version="1.0" encoding="utf-8"?>
<!-- Generator: Adobe Illustrator 16.0.0, SVG Export Plug-In . SVG Version: 6.00 Build 0)  -->
<!DOCTYPE svg PUBLIC "-//W3C//DTD SVG 1.1//EN" "http://www.w3.org/Graphics/SVG/1.1/DTD/svg11.dtd">
<svg version="1.1" id="Layer_1" xmlns="http://www.w3.org/2000/svg" xmlns:xlink="http://www.w3.org/1999/xlink" x="0px" y="0px" fill="lightskyblue" width="64" height="64" viewBox="0 0 100 100" enable-background="new 0 0 100 100" xml:space="preserve">
<g>
	<path d="M55.733,78.21l-1.645-1.306c0.354-0.767,0.557-1.615,0.557-2.513c0-0.869-0.188-1.69-0.521-2.438l1.68-1.398
		c0.696-0.578,0.791-1.613,0.213-2.309c-0.58-0.695-1.613-0.791-2.309-0.211l-1.682,1.397c-0.529-0.362-1.119-0.639-1.752-0.819
		v-2.197c0-0.907-0.733-1.641-1.639-1.641c-0.904,0-1.639,0.733-1.639,1.641v2.197c-0.604,0.172-1.17,0.433-1.681,0.772l-1.739-1.38
		c-0.709-0.563-1.74-0.444-2.304,0.264c-0.562,0.71-0.444,1.741,0.265,2.304l1.646,1.306c-0.354,0.765-0.558,1.615-0.558,2.512
		c0,0.705,0.128,1.378,0.352,2.006l-1.744,1.452c-0.695,0.577-0.791,1.61-0.212,2.306c0.325,0.392,0.791,0.592,1.261,0.592
		c0.369,0,0.742-0.125,1.048-0.379l1.552-1.29c0.617,0.494,1.334,0.868,2.115,1.091v2.199c0,0.905,0.734,1.64,1.639,1.64
		c0.905,0,1.639-0.734,1.639-1.64v-2.199c0.604-0.171,1.171-0.432,1.681-0.773l1.74,1.383c0.302,0.238,0.661,0.354,1.018,0.354
		c0.483,0,0.962-0.212,1.285-0.619C56.561,79.805,56.442,78.774,55.733,78.21z M46.536,76.119c-0.059-0.127-0.128-0.251-0.223-0.365
		c-0.021-0.024-0.047-0.043-0.068-0.067c-0.211-0.386-0.341-0.823-0.341-1.294c0-0.618,0.215-1.184,0.563-1.643
		c0.069-0.062,0.139-0.124,0.198-0.198c0.031-0.039,0.052-0.082,0.079-0.123c0.491-0.473,1.156-0.768,1.891-0.768
		c1.507,0,2.732,1.226,2.732,2.731c0,0.602-0.201,1.154-0.531,1.605c-0.084,0.069-0.161,0.147-0.231,0.237
		c-0.03,0.038-0.051,0.08-0.077,0.121c-0.492,0.473-1.158,0.769-1.893,0.769C47.788,77.125,47.038,76.728,46.536,76.119z"/>
	<path d="M73.169,73.372l-0.998-0.794c0.215-0.466,0.338-0.981,0.338-1.526c0-0.527-0.114-1.027-0.316-1.479l1.02-0.849
		c0.424-0.353,0.481-0.979,0.13-1.402c-0.353-0.422-0.979-0.48-1.402-0.128l-1.021,0.849c-0.32-0.221-0.68-0.388-1.064-0.498v-1.335
		c0-0.55-0.445-0.996-0.994-0.996c-0.55,0-0.996,0.446-0.996,0.996v1.335c-0.366,0.104-0.709,0.263-1.02,0.468l-1.057-0.837
		c-0.431-0.342-1.057-0.269-1.398,0.16c-0.341,0.432-0.27,1.057,0.16,1.399l1,0.792c-0.216,0.465-0.338,0.979-0.338,1.525
		c0,0.427,0.076,0.837,0.213,1.219l-1.06,0.881c-0.423,0.352-0.479,0.978-0.128,1.399c0.196,0.238,0.479,0.36,0.766,0.36
		c0.224,0,0.449-0.075,0.636-0.231l0.942-0.782c0.374,0.301,0.81,0.527,1.283,0.663v1.335c0,0.55,0.446,0.996,0.996,0.996
		c0.549,0,0.994-0.446,0.994-0.996V74.56c0.367-0.105,0.711-0.263,1.021-0.469l1.057,0.838c0.183,0.145,0.4,0.216,0.617,0.216
		c0.294,0,0.584-0.129,0.781-0.376C73.672,74.337,73.601,73.71,73.169,73.372z M67.585,72.1c-0.035-0.078-0.078-0.153-0.135-0.223
		c-0.013-0.015-0.029-0.025-0.042-0.041c-0.128-0.234-0.206-0.499-0.206-0.785c0-0.376,0.13-0.719,0.341-0.998
		c0.042-0.036,0.085-0.073,0.121-0.119c0.019-0.025,0.032-0.05,0.048-0.074c0.299-0.288,0.702-0.467,1.148-0.467
		c0.914,0,1.658,0.743,1.658,1.658c0,0.365-0.122,0.7-0.322,0.976c-0.051,0.041-0.098,0.09-0.141,0.143
		c-0.018,0.023-0.031,0.05-0.047,0.074c-0.299,0.288-0.703,0.467-1.148,0.467C68.345,72.71,67.89,72.469,67.585,72.1z"/>
	<path d="M34.55,70.095l-0.998-0.793c0.215-0.465,0.338-0.98,0.338-1.525c0-0.528-0.115-1.027-0.316-1.481l1.02-0.849
		c0.423-0.352,0.48-0.98,0.129-1.402s-0.979-0.479-1.401-0.129L32.3,64.766c-0.321-0.222-0.681-0.389-1.064-0.497v-1.335
		c0-0.551-0.445-0.996-0.995-0.996s-0.995,0.445-0.995,0.996v1.335c-0.366,0.104-0.71,0.262-1.021,0.469l-1.056-0.839
		c-0.432-0.341-1.057-0.269-1.398,0.16c-0.342,0.431-0.27,1.057,0.16,1.398l1,0.793c-0.217,0.465-0.339,0.981-0.339,1.526
		c0,0.428,0.077,0.836,0.213,1.218l-1.06,0.88c-0.422,0.352-0.479,0.979-0.128,1.402c0.196,0.236,0.479,0.357,0.766,0.357
		c0.225,0,0.45-0.074,0.636-0.229l0.942-0.784c0.374,0.303,0.81,0.528,1.284,0.663v1.335c0,0.551,0.445,0.997,0.995,0.997
		s0.995-0.446,0.995-0.997v-1.335c0.367-0.104,0.711-0.262,1.021-0.469l1.057,0.839c0.183,0.146,0.401,0.215,0.618,0.215
		c0.293,0,0.584-0.129,0.78-0.377C35.052,71.063,34.98,70.437,34.55,70.095z M28.966,68.824c-0.036-0.077-0.078-0.151-0.135-0.221
		c-0.014-0.016-0.029-0.027-0.043-0.041c-0.127-0.235-0.206-0.5-0.206-0.785c0-0.377,0.13-0.72,0.341-0.997
		c0.043-0.039,0.086-0.076,0.121-0.122c0.02-0.022,0.032-0.049,0.049-0.073c0.299-0.288,0.702-0.467,1.147-0.467
		c0.915,0,1.659,0.744,1.659,1.659c0,0.365-0.122,0.7-0.323,0.974c-0.05,0.042-0.097,0.091-0.14,0.145
		c-0.019,0.022-0.031,0.048-0.047,0.073c-0.299,0.288-0.703,0.468-1.149,0.468C29.726,69.436,29.271,69.195,28.966,68.824z"/>
	<g>
		<path d="M49.397,65.08c-5.649,0-10.625-3.513-12.576-8.706c-1.831,0.896-3.838,1.363-5.883,1.363
			c-7.418,0-13.452-6.034-13.452-13.452s6.034-13.452,13.452-13.452c1.3,0,2.58,0.188,3.82,0.557
			c1.801-5.487,6.877-9.216,12.762-9.216c2.854,0,5.639,0.915,7.934,2.591c2.861-1.698,6.107-2.591,9.443-2.591
			c10.229,0,18.551,8.322,18.551,18.551c0,10.229-8.322,18.553-18.551,18.553c-1.365,0-2.747-0.161-4.119-0.477
			C58.321,62.696,54.042,65.08,49.397,65.08z"/>
	</g>
</g>
</svg>
